<svg width="512" height="499" viewBox="0 0 512 499" fill="none" xmlns="http://www.w3.org/2000/svg">
    <!--!Font Awesome Free 6.7.2 by @fontawesome - https://fontawesome.com License - https://fontawesome.com/license/free Copyright 2025 Fonticons, Inc.-->
    <path d="M171.252 401.794C171.252 403.858 168.877 405.509 165.884 405.509C162.477 405.818 160.103 404.167 160.103 401.794C160.103 399.73 162.477 398.079 165.471 398.079C168.568 397.77 171.252 399.421 171.252 401.794ZM139.148 397.151C138.426 399.214 140.49 401.588 143.587 402.207C146.271 403.239 149.368 402.207 149.987 400.143C150.606 398.079 148.645 395.706 145.548 394.778C142.865 394.055 139.871 395.087 139.148 397.151ZM184.774 395.397C181.781 396.119 179.716 398.079 180.026 400.453C180.335 402.516 183.019 403.858 186.116 403.135C189.11 402.413 191.174 400.453 190.865 398.389C190.555 396.429 187.768 395.087 184.774 395.397ZM252.697 0C109.523 0 0 108.652 0 251.766C0 366.196 72.0516 464.117 174.968 498.58C188.181 500.953 192.826 492.801 192.826 486.094C192.826 479.697 192.516 444.409 192.516 422.74C192.516 422.74 120.258 438.218 105.084 391.992C105.084 391.992 93.3161 361.965 76.3871 354.227C76.3871 354.227 52.7484 338.027 78.0387 338.337C78.0387 338.337 103.742 340.4 117.884 364.958C140.49 404.786 178.374 393.333 193.135 386.523C195.51 370.014 202.219 358.56 209.652 351.75C151.948 345.353 93.729 336.995 93.729 237.733C93.729 209.358 101.574 195.119 118.09 176.959C115.406 170.252 106.632 142.599 120.774 106.897C142.348 100.191 192 134.757 192 134.757C212.645 128.979 234.839 125.986 256.826 125.986C278.813 125.986 301.006 128.979 321.652 134.757C321.652 134.757 371.303 100.087 392.877 106.897C407.019 142.702 398.245 170.252 395.561 176.959C412.077 195.222 422.194 209.461 422.194 237.733C422.194 337.305 361.394 345.25 303.69 351.75C313.187 359.902 321.239 375.379 321.239 399.627C321.239 434.4 320.929 477.427 320.929 485.888C320.929 492.595 325.677 500.746 338.787 498.373C442.013 464.117 512 366.196 512 251.766C512 108.652 395.871 0 252.697 0ZM100.335 355.878C98.9935 356.91 99.3032 359.283 101.058 361.243C102.71 362.894 105.084 363.616 106.426 362.275C107.768 361.243 107.458 358.87 105.703 356.91C104.052 355.259 101.677 354.536 100.335 355.878ZM89.1871 347.52C88.4645 348.861 89.4968 350.512 91.5613 351.544C93.2129 352.576 95.2774 352.266 96 350.822C96.7226 349.48 95.6903 347.829 93.6258 346.798C91.5613 346.179 89.9097 346.488 89.1871 347.52ZM122.632 384.253C120.981 385.594 121.6 388.69 123.974 390.65C126.348 393.024 129.342 393.333 130.684 391.682C132.026 390.341 131.406 387.245 129.342 385.285C127.071 382.912 123.974 382.602 122.632 384.253ZM110.865 369.085C109.213 370.117 109.213 372.8 110.865 375.173C112.516 377.546 115.303 378.578 116.645 377.546C118.297 376.205 118.297 373.522 116.645 371.149C115.2 368.776 112.516 367.744 110.865 369.085Z" fill="white"/>
</svg>
